<?xml version="1.0" encoding="utf-8"?>
<svg version="1.1" id="Layer_1" xmlns="http://www.w3.org/2000/svg" xmlns:xlink="http://www.w3.org/1999/xlink" x="0px" y="0px"
	 viewBox="0 0 286 142" style="enable-background:new 0 0 286 142;" xml:space="preserve">
<style type="text/css">
	.st0{fill:#FFFFFF;}
	.st1{fill:none;stroke:#000000;stroke-miterlimit:10;}
</style>
<g>
	<rect x="0.5" y="0.5" class="st0" width="285" height="141"/>
	<path d="M285,1v140H1V1H285 M286,0H0v142h286V0L286,0z"/>
</g>
<g>
	<g>
		<line class="st1" x1="12.5" y1="12.5" x2="12.5" y2="109.53"/>
		<g>
			<polygon points="8.8,106.72 12.5,108.29 16.2,106.72 12.5,115.5"/>
		</g>
	</g>
</g>
<g>
	<g>
		<line class="st1" x1="12" y1="12.5" x2="177.03" y2="12.5"/>
		<g>
			<polygon points="174.22,16.2 175.79,12.5 174.22,8.8 183,12.5"/>
		</g>
	</g>
</g>
<g>
	<path d="M189.7,9.2l0.83,1.25c0.22,0.32,0.4,0.62,0.59,0.95h0.04c0.19-0.35,0.38-0.65,0.58-0.96l0.82-1.24h1.14L191.7,12l2.04,3
		h-1.2l-0.85-1.31c-0.23-0.34-0.42-0.66-0.62-1.01h-0.02c-0.19,0.35-0.4,0.66-0.61,1.01L189.59,15h-1.16l2.06-2.96l-1.97-2.84H189.7
		z"/>
</g>
<g>
	<path d="M11.26,122.86l1.27,3.43c0.13,0.38,0.28,0.84,0.37,1.19h0.02c0.11-0.35,0.23-0.79,0.37-1.21l1.15-3.41h1.12L13.98,127
		c-0.76,1.99-1.27,3.01-1.99,3.63c-0.52,0.46-1.03,0.64-1.29,0.68l-0.26-0.89c0.26-0.08,0.61-0.25,0.92-0.52
		c0.29-0.23,0.65-0.64,0.89-1.18c0.05-0.11,0.08-0.19,0.08-0.25c0-0.06-0.02-0.14-0.07-0.28l-2.15-5.35H11.26z"/>
</g>
<circle cx="13" cy="13.5" r="2"/>
<g>
	<path d="M23.22,22.52c0,2.65-0.98,4.11-2.71,4.11c-1.52,0-2.55-1.43-2.58-4.01c0-2.61,1.13-4.05,2.71-4.05
		C22.29,18.57,23.22,20.04,23.22,22.52z M18.99,22.64c0,2.03,0.62,3.18,1.58,3.18c1.08,0,1.6-1.26,1.6-3.25
		c0-1.92-0.49-3.18-1.58-3.18C19.66,19.39,18.99,20.52,18.99,22.64z"/>
	<path d="M23.85,27.98c0.26-0.71,0.59-1.99,0.72-2.87l1.18-0.12c-0.28,1.02-0.8,2.35-1.14,2.91L23.85,27.98z"/>
	<path d="M31.86,22.52c0,2.65-0.98,4.11-2.71,4.11c-1.52,0-2.55-1.43-2.58-4.01c0-2.61,1.13-4.05,2.71-4.05
		C30.92,18.57,31.86,20.04,31.86,22.52z M27.63,22.64c0,2.03,0.62,3.18,1.58,3.18c1.08,0,1.6-1.26,1.6-3.25
		c0-1.92-0.49-3.18-1.58-3.18C28.3,19.39,27.63,20.52,27.63,22.64z"/>
</g>
</svg>
